<mxfile host="app.diagrams.net" modified="2024-01-09T02:18:23.238Z" agent="Mozilla/5.0 (Windows NT 10.0; Win64; x64) AppleWebKit/537.36 (KHTML, like Gecko) Chrome/120.0.0.0 Safari/537.36 Edg/120.0.0.0" etag="1-pEw0n2hDO_PyrIEyQx" version="22.1.17" type="github">
  <diagram name="第 1 页" id="fDONv4_hEeUsKiGKBoPI">
    <mxGraphModel dx="1078" dy="485" grid="1" gridSize="10" guides="1" tooltips="1" connect="1" arrows="1" fold="1" page="1" pageScale="1" pageWidth="827" pageHeight="1169" math="0" shadow="0">
      <root>
        <mxCell id="0" />
        <mxCell id="1" parent="0" />
        <mxCell id="NEwsiC82i4V54aUvor26-3" value="" style="rounded=0;whiteSpace=wrap;html=1;" parent="1" vertex="1">
          <mxGeometry x="70" y="600" width="550" height="350" as="geometry" />
        </mxCell>
        <mxCell id="NEwsiC82i4V54aUvor26-5" value="" style="endArrow=none;html=1;rounded=0;exitX=-0.001;exitY=0.112;exitDx=0;exitDy=0;exitPerimeter=0;entryX=1.001;entryY=0.11;entryDx=0;entryDy=0;entryPerimeter=0;" parent="1" source="NEwsiC82i4V54aUvor26-3" target="NEwsiC82i4V54aUvor26-3" edge="1">
          <mxGeometry width="50" height="50" relative="1" as="geometry">
            <mxPoint x="330" y="710" as="sourcePoint" />
            <mxPoint x="380" y="660" as="targetPoint" />
          </mxGeometry>
        </mxCell>
        <mxCell id="NEwsiC82i4V54aUvor26-6" value="菜单栏和工具栏" style="text;html=1;strokeColor=none;fillColor=none;align=center;verticalAlign=middle;whiteSpace=wrap;rounded=0;" parent="1" vertex="1">
          <mxGeometry x="275" y="610" width="140" height="30" as="geometry" />
        </mxCell>
        <mxCell id="NEwsiC82i4V54aUvor26-7" value="" style="rounded=0;whiteSpace=wrap;html=1;" parent="1" vertex="1">
          <mxGeometry x="70" y="640" width="90" height="210" as="geometry" />
        </mxCell>
        <mxCell id="NEwsiC82i4V54aUvor26-8" value="" style="endArrow=none;html=1;rounded=0;exitX=0.5;exitY=1;exitDx=0;exitDy=0;entryX=0.5;entryY=0;entryDx=0;entryDy=0;" parent="1" source="NEwsiC82i4V54aUvor26-7" target="NEwsiC82i4V54aUvor26-7" edge="1">
          <mxGeometry width="50" height="50" relative="1" as="geometry">
            <mxPoint x="100" y="830" as="sourcePoint" />
            <mxPoint x="150" y="780" as="targetPoint" />
          </mxGeometry>
        </mxCell>
        <mxCell id="NEwsiC82i4V54aUvor26-9" value="特征历史树" style="text;html=1;strokeColor=none;fillColor=none;align=center;verticalAlign=middle;whiteSpace=wrap;rounded=0;" parent="1" vertex="1">
          <mxGeometry x="70" y="680" width="40" height="100" as="geometry" />
        </mxCell>
        <mxCell id="NEwsiC82i4V54aUvor26-10" value="特征参数对话框" style="text;html=1;strokeColor=none;fillColor=none;align=center;verticalAlign=middle;whiteSpace=wrap;rounded=0;" parent="1" vertex="1">
          <mxGeometry x="120" y="690" width="40" height="90" as="geometry" />
        </mxCell>
        <mxCell id="NEwsiC82i4V54aUvor26-11" value="" style="rounded=0;whiteSpace=wrap;html=1;" parent="1" vertex="1">
          <mxGeometry x="70" y="850" width="90" height="60" as="geometry" />
        </mxCell>
        <mxCell id="NEwsiC82i4V54aUvor26-12" value="属性窗口" style="text;html=1;strokeColor=none;fillColor=none;align=center;verticalAlign=middle;whiteSpace=wrap;rounded=0;" parent="1" vertex="1">
          <mxGeometry x="80" y="865" width="70" height="30" as="geometry" />
        </mxCell>
        <mxCell id="NEwsiC82i4V54aUvor26-13" value="" style="rounded=0;whiteSpace=wrap;html=1;" parent="1" vertex="1">
          <mxGeometry x="160" y="640" width="460" height="270" as="geometry" />
        </mxCell>
        <mxCell id="NEwsiC82i4V54aUvor26-14" value="模型空间" style="text;html=1;strokeColor=none;fillColor=none;align=center;verticalAlign=middle;whiteSpace=wrap;rounded=0;" parent="1" vertex="1">
          <mxGeometry x="320" y="730" width="60" height="30" as="geometry" />
        </mxCell>
        <mxCell id="NEwsiC82i4V54aUvor26-15" value="" style="rounded=0;whiteSpace=wrap;html=1;" parent="1" vertex="1">
          <mxGeometry x="70" y="910" width="550" height="40" as="geometry" />
        </mxCell>
        <mxCell id="NEwsiC82i4V54aUvor26-16" value="输出窗口" style="text;html=1;strokeColor=none;fillColor=none;align=center;verticalAlign=middle;whiteSpace=wrap;rounded=0;" parent="1" vertex="1">
          <mxGeometry x="320" y="915" width="60" height="30" as="geometry" />
        </mxCell>
      </root>
    </mxGraphModel>
  </diagram>
</mxfile>
